<?xml version="1.0" encoding="utf-8"?>
<!-- Generator: Adobe Illustrator 22.0.0, SVG Export Plug-In . SVG Version: 6.00 Build 0)  -->
<svg version="1.1" id="Layer_1" xmlns="http://www.w3.org/2000/svg" xmlns:xlink="http://www.w3.org/1999/xlink" x="0px" y="0px"
	 viewBox="0 0 800 800" style="enable-background:new 0 0 800 800;" xml:space="preserve">
<style type="text/css">
	.st0{fill:#F6F8FD;}
	.st1{fill:none;stroke:#DDDDDD;stroke-width:6;stroke-miterlimit:10;}
	.st2{fill:none;stroke:#DDDDDD;stroke-width:6;stroke-linejoin:round;stroke-miterlimit:10;}
	.st3{fill:#FFFFFF;stroke:#CCCCCC;stroke-width:10;stroke-miterlimit:10;}
	.st4{fill:none;stroke:#A5A5A5;stroke-width:8;stroke-linecap:round;stroke-miterlimit:10;}
	.st5{fill:#2FB9BC;}
	.st6{fill:none;stroke:#129393;stroke-miterlimit:10;}
	.st7{fill:#DDDDDD;}
</style>
<g>
	
		<ellipse transform="matrix(0.2769 -0.9609 0.9609 0.2769 -94.7522 674.0903)" class="st0" cx="400.5" cy="400" rx="334" ry="398.7"/>
</g>
<g>
	<line class="st1" x1="411.5" y1="547.9" x2="383.8" y2="624.4"/>
	<path class="st2" d="M468.5,670H305.7c0,0,4.9-45.6,30.9-45.6h131.9"/>
	<line class="st1" x1="525.4" y1="547.9" x2="553.1" y2="624.4"/>
	<path class="st2" d="M468.5,670h162.8c0,0-4.9-45.6-30.9-45.6H468.5"/>
	<path class="st3" d="M741.8,547.9H202.5c-14.7,0-26.7-12-26.7-26.7V149.7c0-14.7,12-26.7,26.7-26.7h539.3c14.7,0,26.7,12,26.7,26.7
		v371.6C768.4,535.9,756.4,547.9,741.8,547.9z"/>
	<g>
		<line class="st4" x1="358.9" y1="238.8" x2="409.2" y2="289.1"/>
		<line class="st4" x1="409.2" y1="238.8" x2="358.9" y2="289.1"/>
		<line class="st4" x1="535" y1="238.8" x2="585.4" y2="289.1"/>
		<line class="st4" x1="585.4" y1="238.8" x2="535" y2="289.1"/>
		<ellipse class="st5" cx="555.3" cy="417.9" rx="20.2" ry="14.2"/>
		<rect x="535" y="372.6" class="st5" width="40.5" height="44.5"/>
		<line class="st4" x1="358.9" y1="372.6" x2="585.4" y2="372.6"/>
		<line class="st6" x1="555.3" y1="380.5" x2="555.3" y2="417.1"/>
	</g>
	<rect x="181" y="489.6" class="st7" width="582" height="6"/>
</g>
</svg>
