<?xml version="1.0" encoding="utf-8"?>
<!-- Generator: Adobe Illustrator 22.0.0, SVG Export Plug-In . SVG Version: 6.00 Build 0)  -->
<svg version="1.1" id="Capa_1" xmlns="http://www.w3.org/2000/svg" xmlns:xlink="http://www.w3.org/1999/xlink" x="0px" y="0px"
	 viewBox="0 0 100 100" style="enable-background:new 0 0 100 100;" xml:space="preserve">
<style type="text/css">
	.st0{fill:#FFFFFF;}
</style>
<g>
	<g>
		<path class="st0" d="M78,22.9c0-10.7,0-11.7,0-11.7C78,7.2,65.5,0,50,0C34.5,0,22,7.2,22,11.1c0,0,0,1,0,11.7
			C22,33.6,41.4,42.4,41.4,50S22,66.4,22,77.1s0,11.7,0,11.7c0,3.9,12.5,11.1,28,11.1c15.5,0,28-7.2,28-11.1c0,0,0-1,0-11.7
			S58.6,57.6,58.6,50S78,33.6,78,22.9z M29.7,11.6c3.5-2.2,10-5.4,20.6-5.4c10.6,0,20,5.4,20,5.4c0.7,0.4,3.5,1.9,1.6,3
			c-4.2,2.5-12.4,5.1-21.9,5.1s-17.4-2.9-21.6-5.4C26.5,13.3,29.7,11.6,29.7,11.6z M52.5,50c0,6,5,9.8,10.3,14.9
			c3.9,3.7,9.1,8.9,9.1,12.2v6.6C67,81.3,52.5,79,52.5,71.2c0-3.9-5.1-3.9-5.1,0c0,7.7-14.5,10.1-19.4,12.5v-6.6
			c0-3.3,5.3-8.4,9.1-12.2c5.3-5.1,10.3-9,10.3-14.9s-5-9.8-10.3-14.9c-3.9-3.7-9.1-8.9-9.1-12.2l-0.2-5c5.1,2.8,13.3,5.4,22.1,5.4
			s17-2.6,22.2-5.4l-0.3,5c0,3.3-5.3,8.4-9.1,12.2C57.5,40.2,52.5,44,52.5,50z"/>
	</g>
</g>
</svg>
