<?xml version="1.0" encoding="utf-8"?>
<!-- Generator: Adobe Illustrator 22.0.0, SVG Export Plug-In . SVG Version: 6.00 Build 0)  -->
<svg version="1.1" id="Layer_1" xmlns="http://www.w3.org/2000/svg" xmlns:xlink="http://www.w3.org/1999/xlink" x="0px" y="0px"
	 viewBox="0 0 512 512" style="enable-background:new 0 0 512 512;" xml:space="preserve">
<style type="text/css">
	.st0{fill:#FFFFFF;}
</style>
<g>
	<g>
		<path class="st0" d="M403.9,0H108.1C48.5,0,0,48.5,0,108.1v295.8C0,463.5,48.5,512,108.1,512h295.8c59.6,0,108.1-48.5,108.1-108.1
			V108.1C512,48.5,463.5,0,403.9,0z M486,403.9c0,45.3-36.8,82.1-82.1,82.1H108.1C62.9,486,26,449.1,26,403.9V108.1
			C26,62.9,62.9,26,108.1,26h295.8c45.3,0,82.1,36.8,82.1,82.1L486,403.9L486,403.9z"/>
	</g>
</g>
<g>
	<g>
		<path class="st0" d="M390.3,248.3c-3.8-68.5-59.6-123.6-128.1-126.7c-79.1-3.6-144.2,61.6-140.6,140.6
			c3.1,68.5,58.3,124.2,126.8,128c28.9,1.6,56-6,78.6-20.1c7-4.4,8.2-14.2,2.3-20.1c-0.1-0.1-0.1-0.1-0.2-0.2
			c-4.3-4.3-10.9-4.9-16.1-1.7c-16.9,10.5-36.9,16.5-58.2,16.3c-60.3-0.6-109-51.3-107.3-111.6c1.7-60.7,53.5-109,115.4-105.2
			c53.3,3.3,96.8,45.9,101.1,99.1c1.8,21.7-2.9,42.2-12.3,59.8c-2.7,5-1.9,11.2,2.2,15.3c0.1,0.1,0.1,0.1,0.2,0.2
			c6.1,6.1,16.3,4.6,20.4-2.9C385.9,298.3,391.7,274,390.3,248.3z"/>
	</g>
</g>
<g>
	<g>
		<circle class="st0" cx="394.8" cy="99.8" r="34.7"/>
	</g>
</g>
</svg>
