<?xml version="1.0" encoding="utf-8"?>
<!-- Generator: Adobe Illustrator 22.0.0, SVG Export Plug-In . SVG Version: 6.00 Build 0)  -->
<svg version="1.1" id="Layer_1" xmlns="http://www.w3.org/2000/svg" xmlns:xlink="http://www.w3.org/1999/xlink" x="0px" y="0px"
	 viewBox="0 0 800 800" style="enable-background:new 0 0 800 800;" xml:space="preserve">
<style type="text/css">
	.st0{fill:#F6F8FD;}
	.st1{fill:#9EA9BA;}
	.st2{fill:#FFFFFF;stroke:#CCCCCC;stroke-width:10;stroke-miterlimit:10;}
	.st3{fill:#A5A5A5;}
	.st4{fill:none;stroke:#A5A5A5;stroke-width:14;stroke-linecap:round;stroke-miterlimit:10;}
	.st5{fill:none;stroke:#E7EAF2;stroke-width:3;stroke-miterlimit:10;}
</style>
<path class="st0" d="M617.1,304.2H96.9c-36,0-65.4-29.4-65.4-65.4l0,0c0-36,29.4-65.4,65.4-65.4h520.2c36,0,65.4,29.4,65.4,65.4l0,0
	C682.5,274.8,653,304.2,617.1,304.2z"/>
<path class="st0" d="M668.1,400H147.9c-36,0-65.4-29.4-65.4-65.4l0,0c0-36,29.4-65.4,65.4-65.4h520.2c36,0,65.4,29.4,65.4,65.4l0,0
	C733.5,370.6,704,400,668.1,400z"/>
<path class="st0" d="M661.1,578.7H217.8c-30.7,0-55.7-25.1-55.7-55.7l0,0c0-30.7,25.1-55.7,55.7-55.7h443.3
	c30.7,0,55.7,25.1,55.7,55.7l0,0C716.8,553.6,691.8,578.7,661.1,578.7z"/>
<path class="st0" d="M690.4,475.3H306.2c-56.7,0-103-46.4-103-103l0,0c0-56.7,46.4-103,103-103h384.2c56.7,0,103,46.4,103,103l0,0
	C793.5,428.9,747.1,475.3,690.4,475.3z"/>
<circle class="st1" cx="162.1" cy="224.2" r="17.5"/>
<circle class="st1" cx="623.1" cy="624" r="9.9"/>
<circle class="st1" cx="758.8" cy="309.3" r="25.3"/>
<circle class="st2" cx="425.1" cy="348.3" r="288.1"/>
<ellipse class="st3" cx="332.6" cy="252.6" rx="30.3" ry="42.2"/>
<ellipse class="st3" cx="519" cy="252.6" rx="30.3" ry="42.2"/>
<path class="st4" d="M538,424.3c0,0-170.8-24-221.6,67"/>
<circle class="st5" cx="203.2" cy="445" r="17.5"/>
<circle class="st5" cx="588.1" cy="70.9" r="17.5"/>
<circle class="st5" cx="273.6" cy="673.7" r="44.3"/>
</svg>
