<?xml version="1.0" encoding="utf-8"?>
<!-- Generator: Adobe Illustrator 19.2.0, SVG Export Plug-In . SVG Version: 6.00 Build 0)  -->
<svg version="1.1" id="Layer_1" xmlns="http://www.w3.org/2000/svg" xmlns:xlink="http://www.w3.org/1999/xlink" x="0px" y="0px"
	 viewBox="0 0 773 303.1" style="enable-background:new 0 0 773 303.1;" xml:space="preserve">
<g>
	<path d="M49,94.1c0,2.3,0.3,4.1,1,5.5c0.6,1.4,1.5,2.4,2.6,3.2c1.1,0.7,2.3,1.2,3.8,1.5c1.5,0.2,3,0.4,4.6,0.4h3.3v6.1H18.9v-6.1
		h3.3c1.6,0,3.1-0.1,4.6-0.3c1.4-0.2,2.7-0.7,3.8-1.3c1.1-0.7,2-1.6,2.6-3c0.6-1.3,1-3,1-5.2V13.9H20.3c-2.1,0-3.9,0.3-5.4,1
		c-1.4,0.6-2.6,1.5-3.6,2.6c-0.9,1.1-1.6,2.4-2.1,3.8c-0.5,1.4-0.8,3-1,4.6l-0.8,6.3H0L0.7,6.7h82l0.7,25.5h-7.5l-0.7-6.3
		c-0.2-1.6-0.5-3.1-1-4.6c-0.5-1.4-1.2-2.7-2.1-3.8c-0.9-1.1-2.1-2-3.6-2.6c-1.5-0.6-3.3-1-5.5-1H49V94.1z"/>
	<path d="M128.2,104.6v6.1H89v-6.1h1.1c1.7,0,3.2-0.1,4.7-0.4c1.4-0.2,2.7-0.7,3.8-1.5c1.1-0.7,1.9-1.8,2.6-3.2c0.6-1.4,1-3.2,1-5.5
		V16c0-2.1-0.3-3.9-1-5.2c-0.6-1.3-1.5-2.3-2.6-3c-1.1-0.7-2.4-1.2-3.8-1.4c-1.4-0.2-3-0.3-4.6-0.3H89V0h26.8v32
		c0,1.3,0,2.7-0.1,4.2c0,1.4-0.1,2.8-0.2,4c-0.1,1.4-0.2,2.8-0.3,4.2h0.7c4.4-8.8,11.5-13.2,21.4-13.2c4.1,0,7.8,0.6,11,1.7
		c3.2,1.1,5.9,2.8,8.1,5.1c2.2,2.3,3.8,5.3,5,8.9c1.1,3.6,1.7,7.9,1.7,12.9v34.4c0,2.3,0.3,4.1,0.9,5.5s1.4,2.4,2.3,3.2
		c1,0.7,2.2,1.2,3.6,1.5c1.4,0.2,2.9,0.4,4.5,0.4h0.4v6.1h-25.3V60.4c0-3.2-0.3-6-0.9-8.5c-0.6-2.5-1.5-4.6-2.7-6.3
		c-1.3-1.7-2.9-3-4.9-3.9c-2-0.9-4.5-1.3-7.5-1.3c-3,0-5.7,0.6-7.9,1.7c-2.2,1.1-4,2.7-5.5,4.8c-1.4,2.1-2.5,4.6-3.2,7.5
		c-0.7,2.9-1.1,6.2-1.1,9.7v30.7c0,2.1,0.3,3.9,1,5.2c0.6,1.3,1.5,2.3,2.6,3c1.1,0.7,2.4,1.1,3.8,1.3c1.4,0.2,3,0.3,4.6,0.3H128.2z"
		/>
	<path d="M220.7,112.1c-5.3,0-10-0.9-14.2-2.7c-4.2-1.8-7.7-4.4-10.6-7.8c-2.9-3.4-5.1-7.6-6.7-12.6c-1.5-5-2.3-10.6-2.3-16.9
		c0-13.6,2.8-23.9,8.4-30.7c5.6-6.9,13.6-10.3,23.9-10.3c4.7,0,8.9,0.7,12.7,2.2c3.7,1.5,6.9,3.7,9.5,6.6c2.6,2.9,4.6,6.5,6,10.9
		c1.4,4.3,2.1,9.4,2.1,15.1v6.7H201c0.1,5.3,0.6,9.9,1.6,13.7c1,3.8,2.4,7,4.2,9.4c1.8,2.5,4.1,4.3,6.7,5.4c2.7,1.2,5.7,1.7,9.2,1.7
		c2.5,0,4.9-0.3,7-0.9c2.2-0.6,4.1-1.3,5.9-2.3c1.8-0.9,3.3-2,4.7-3.2c1.4-1.2,2.5-2.5,3.3-3.8c0.7,0.3,1.3,0.9,1.9,1.8
		c0.6,0.9,0.9,2,0.9,3.2c0,1.5-0.5,3-1.6,4.7c-1,1.7-2.6,3.2-4.8,4.7s-4.8,2.6-8,3.6C228.8,111.7,225,112.1,220.7,112.1z M219,39
		c-5.4,0-9.6,2.2-12.5,6.6c-2.9,4.4-4.6,10.8-5.2,19.2h33.5c0-3.8-0.3-7.4-0.9-10.5c-0.6-3.2-1.5-5.9-2.7-8.2
		c-1.2-2.3-2.9-4-4.9-5.3C224.4,39.6,221.9,39,219,39z"/>
	<path d="M328.8,103.5h28.1c2.3,0,4.3-0.3,5.9-1s3-1.5,4.1-2.6c1.1-1.1,1.9-2.4,2.6-3.8c0.6-1.4,1-3,1.3-4.6l1-6.3h7.6l-1,25.5
		h-78.1v-6.1h1.9c1.6,0,3.1-0.1,4.6-0.3c1.4-0.2,2.7-0.7,3.8-1.3c1.1-0.7,2-1.6,2.6-3c0.6-1.3,1-3,1-5.2V23.3c0-2.3-0.3-4.1-0.9-5.5
		c-0.6-1.4-1.5-2.4-2.6-3.2c-1.1-0.7-2.4-1.2-3.8-1.5c-1.4-0.2-3-0.4-4.7-0.4h-1.9V6.7h73.4l0.7,25.5h-7.5l-0.7-6.3
		c-0.2-1.6-0.6-3.1-1.1-4.6c-0.5-1.4-1.3-2.7-2.3-3.8c-1-1.1-2.3-2-3.8-2.6c-1.5-0.6-3.4-1-5.6-1h-24.5v38.8H364v7.1h-35.2V103.5z"
		/>
	<path d="M424.2,104.5c1.8,0,3.4-0.1,4.8-0.3c1.5-0.2,3-0.4,4.5-0.7v6.4c-0.6,0.3-1.4,0.6-2.4,0.9c-1,0.3-2.1,0.5-3.2,0.7
		c-1.2,0.2-2.4,0.4-3.7,0.5c-1.3,0.1-2.5,0.2-3.6,0.2c-3.7,0-6.9-0.4-9.5-1.2c-2.7-0.8-4.8-2.1-6.5-3.8c-1.7-1.8-3-4.1-3.8-7
		c-0.8-2.9-1.2-6.4-1.2-10.6V40.9h-11.1v-5.8c1.8,0,3.7-0.4,5.8-1.1c2.1-0.7,4-1.9,5.6-3.6c1.7-1.8,3-3.9,4-6.4
		c1-2.5,1.9-5.6,2.7-9.4h6.7v17.9h19.1v8.3h-19.1V90c0,5,1,8.6,3,11C418.1,103.3,420.8,104.5,424.2,104.5z"/>
	<path d="M478.7,104.6v6.1h-39.2v-6.1h1.1c1.7,0,3.2-0.1,4.7-0.4c1.4-0.2,2.7-0.7,3.8-1.5c1.1-0.7,1.9-1.8,2.6-3.2s1-3.2,1-5.5V16
		c0-2.1-0.3-3.9-1-5.2c-0.6-1.3-1.5-2.3-2.6-3c-1.1-0.7-2.4-1.2-3.8-1.4c-1.4-0.2-3-0.3-4.6-0.3h-1.1V0h26.8v32c0,1.3,0,2.7-0.1,4.2
		c0,1.4-0.1,2.8-0.2,4c-0.1,1.4-0.2,2.8-0.3,4.2h0.7c4.4-8.8,11.5-13.2,21.4-13.2c4.1,0,7.8,0.6,11,1.7c3.2,1.1,5.9,2.8,8.1,5.1
		c2.2,2.3,3.8,5.3,5,8.9c1.1,3.6,1.7,7.9,1.7,12.9v34.4c0,2.3,0.3,4.1,0.9,5.5s1.4,2.4,2.3,3.2c1,0.7,2.2,1.2,3.6,1.5
		c1.4,0.2,2.9,0.4,4.5,0.4h0.4v6.1H500V60.4c0-3.2-0.3-6-0.9-8.5c-0.6-2.5-1.5-4.6-2.7-6.3c-1.3-1.7-2.9-3-4.9-3.9
		c-2-0.9-4.5-1.3-7.5-1.3c-3,0-5.7,0.6-7.9,1.7c-2.2,1.1-4,2.7-5.5,4.8c-1.4,2.1-2.5,4.6-3.2,7.5c-0.7,2.9-1.1,6.2-1.1,9.7v30.7
		c0,2.1,0.3,3.9,1,5.2c0.6,1.3,1.5,2.3,2.6,3c1.1,0.7,2.4,1.1,3.8,1.3c1.4,0.2,3,0.3,4.6,0.3H478.7z"/>
	<path d="M534.6,104.6c1.6,0,3.1-0.1,4.6-0.3c1.4-0.2,2.7-0.7,3.8-1.3c1.1-0.7,2-1.6,2.6-3c0.6-1.3,1-3,1-5.2V48.7
		c0-2.1-0.3-3.9-1-5.2c-0.6-1.3-1.5-2.3-2.6-3c-1.1-0.7-2.4-1.2-3.8-1.4c-1.4-0.2-3-0.4-4.6-0.4h-0.4v-6.1h26v61.6
		c0,2.3,0.3,4.1,1,5.5c0.6,1.4,1.5,2.4,2.6,3.2c1.1,0.7,2.3,1.2,3.8,1.5c1.5,0.2,3,0.4,4.6,0.4h1.9v6.1h-41.4v-6.1H534.6z M544.5,9
		c0-1.7,0.2-3.1,0.6-4.3c0.4-1.1,1-2.1,1.8-2.8c0.8-0.7,1.6-1.2,2.6-1.5s2.1-0.4,3.3-0.4c1.1,0,2.2,0.1,3.2,0.4s1.9,0.8,2.6,1.5
		c0.7,0.7,1.3,1.6,1.8,2.8c0.5,1.1,0.7,2.6,0.7,4.3c0,1.7-0.2,3.1-0.7,4.3c-0.5,1.1-1,2.1-1.8,2.8c-0.7,0.7-1.6,1.2-2.6,1.5
		c-1,0.3-2.1,0.5-3.2,0.5c-1.2,0-2.3-0.2-3.3-0.5c-1-0.3-1.9-0.8-2.6-1.5c-0.8-0.7-1.4-1.6-1.8-2.8C544.7,12.1,544.5,10.7,544.5,9z"
		/>
	<path d="M617.2,112.1c-4.8,0-9.3-0.7-13.4-2.2c-4.1-1.5-7.6-3.9-10.5-7.1c-2.9-3.2-5.2-7.4-6.9-12.4S584,79.2,584,72.1
		c0-7.8,0.8-14.3,2.5-19.5c1.6-5.2,3.9-9.5,6.8-12.6c2.9-3.2,6.4-5.4,10.3-6.8c4-1.3,8.2-2,12.8-2c3,0,6.1,0.3,9.1,0.9
		c3,0.6,5.7,1.5,8.1,2.7c2.4,1.2,4.4,2.8,5.9,4.7c1.5,1.9,2.3,4.1,2.3,6.6c0,3.4-1.1,5.7-3.3,7.1c-2.2,1.4-5.4,2.1-9.7,2.1
		c0-2.3-0.2-4.4-0.6-6.5c-0.4-2-1-3.8-2-5.4c-0.9-1.5-2.2-2.8-3.8-3.6c-1.6-0.9-3.6-1.3-6.1-1.3c-2.8,0-5.3,0.5-7.6,1.6
		c-2.3,1-4.2,2.8-5.8,5.4c-1.6,2.6-2.8,6-3.7,10.3c-0.9,4.3-1.3,9.7-1.3,16.2c0,10.3,1.7,18.1,5.2,23.1c3.4,5.1,9.1,7.6,16.9,7.6
		c4.5,0,8.4-0.9,11.8-2.8c3.4-1.9,5.9-4.3,7.5-7.3c0.7,0.6,1.3,1.3,1.8,2.3c0.5,0.9,0.7,2.1,0.7,3.4c0,1.7-0.5,3.3-1.6,5
		c-1,1.7-2.6,3.2-4.7,4.5s-4.6,2.4-7.7,3.2C625,111.7,621.4,112.1,617.2,112.1z"/>
	<path d="M686.7,38.4c-2.8,0-5.1,0.4-6.8,1.2c-1.7,0.8-3.1,1.9-4.1,3.3s-1.6,3.1-2,5.1c-0.3,1.9-0.5,4.1-0.5,6.3
		c-4,0-7.1-0.7-9.2-2.1c-2.1-1.4-3.2-3.7-3.2-7.1c0-2.5,0.7-4.6,2.1-6.4c1.4-1.8,3.3-3.2,5.7-4.3c2.4-1.1,5.2-1.9,8.4-2.5
		c3.2-0.5,6.6-0.8,10.2-0.8c4.5,0,8.3,0.4,11.7,1.3c3.3,0.9,6.1,2.3,8.3,4.3c2.2,2,3.9,4.6,5,7.8c1.1,3.2,1.7,7.1,1.7,11.8v37.8
		c0,2,0.2,3.7,0.5,5.1c0.3,1.3,0.9,2.4,1.6,3.2c0.7,0.8,1.6,1.4,2.8,1.7c1.2,0.3,2.5,0.5,4.2,0.5h0.4v6.1h-19.7l-2.3-12.5h-1.2
		c-1.5,2-3,3.9-4.4,5.6c-1.4,1.7-3,3.2-4.7,4.4c-1.7,1.2-3.6,2.2-5.8,2.9c-2.2,0.7-4.8,1-7.8,1c-3.2,0-6.2-0.5-9-1.4
		s-5.2-2.3-7.2-4.3c-2-1.9-3.6-4.3-4.7-7.3c-1.1-2.9-1.7-6.4-1.7-10.4c0-7.7,2.8-13.5,8.3-17.2c5.5-3.7,13.8-5.8,25-6.1l12.1-0.4
		v-8.8c0-2.6-0.1-5-0.4-7.2c-0.3-2.2-0.9-4.1-1.9-5.7c-0.9-1.6-2.3-2.8-4.1-3.7C692.1,38.9,689.7,38.4,686.7,38.4z M669.1,89.6
		c0,4.6,1,8,2.9,10.2c1.9,2.3,4.9,3.4,8.9,3.4c2.9,0,5.6-0.5,8-1.4c2.4-0.9,4.4-2.3,6.1-4.1c1.7-1.8,3-3.9,3.9-6.4
		c0.9-2.5,1.4-5.3,1.4-8.4V71.1l-9.3,0.4c-4.1,0.2-7.6,0.7-10.4,1.5c-2.8,0.8-5,2-6.7,3.5c-1.7,1.5-2.9,3.3-3.7,5.5
		C669.5,84.2,669.1,86.7,669.1,89.6z"/>
	<path d="M733.5,104.6c1.7,0,3.2-0.1,4.7-0.4c1.4-0.2,2.7-0.7,3.8-1.5c1.1-0.7,1.9-1.8,2.6-3.2s1-3.2,1-5.5V16c0-2.1-0.3-3.9-1-5.2
		c-0.6-1.3-1.5-2.3-2.6-3c-1.1-0.7-2.4-1.2-3.8-1.4c-1.4-0.2-3-0.3-4.6-0.3h-1.9V0h27.5v94.1c0,2.3,0.3,4.1,0.9,5.5
		c0.6,1.4,1.5,2.4,2.6,3.2c1.1,0.7,2.4,1.2,3.8,1.5c1.4,0.2,3,0.4,4.7,0.4h1.9v6.1h-41.3v-6.1H733.5z"/>
</g>
<g>
	<path d="M77.2,182.5c-4,0-6.7-1.6-9.6-4.7c4-2.9,6.5-9.2,6.5-15.4c0-10.3-6.5-21.2-21.4-21.2c-15.6,0-24.1,12.1-24.1,27
		c0,43.3,70.8,25.9,70.8,85.6c0,36-25.9,49.4-52,49.4c-23,0-47.4-10.5-47.4-36c0-14.7,8.3-32.6,24.3-32.6c6.5,0,10.9,2.9,14.5,12.7
		c-14.3,0.7-17.9,12.1-17.9,19.7c0,16.1,16.1,23.9,27.7,23.9c13.6,0,23.7-10.7,23.7-30.4c0-49.8-65.4-30.4-65.4-82.2
		c0-29.9,21.7-45.1,44.9-45.1c10.3,0,38.9,2.9,38.9,30.6C90.6,175.6,85.3,182.5,77.2,182.5z"/>
	<path d="M202.3,188.8v75.9c0,5.8,0.4,20.1,10.1,20.1c7.1,0,12.7-8.3,16.1-24.3h8.3c-6.7,37.3-21.2,41.3-31,41.3
		c-13.6,0-19.4-10.1-21.7-21.2c-4.5,11.6-15,21.2-29,21.2c-18.1,0-38.2-13.6-38.2-51.2c0-27.5,12.1-63,42.4-63
		c7.1,0,16.5,2.7,20.8,11.8v-10.7H202.3z M180,260.5v-50.9c-2-4.7-6.5-9.6-13.2-9.6c-19.2,0-26.6,28.4-26.6,49.1
		c0,25.5,7.4,35.7,20.3,35.7C169.7,284.8,180,274.1,180,260.5z"/>
	<path d="M257.7,188.8v18.8c6.9-10.5,13.6-19.9,26.4-19.9c10.1,0,14.7,6,14.7,13.4c0,8.9-6.7,11.6-10.3,11.6c-5.1,0-6-5.6-12.5-5.6
		c-6.7,0-13.2,5.8-18.3,11.2v82.2h-22.3V188.8H257.7z"/>
	<path d="M340.1,154.8v34h17.2v7.8h-17.2v68.1c0,6.9,0.4,20.1,10.5,20.1c8,0,15.9-8,20.1-24.3h8.3c-9.8,37.3-24.6,41.3-34.8,41.3
		c-21.4,0-26.4-17.6-26.4-32.4v-72.8h-7.6v-7.8h7.6v-30.8L340.1,154.8z"/>
	<path d="M453.4,222.9h1.3c12.3,0,23.2-5.8,30.6-13.4l3.4,6c-5.8,9.6-20.6,16.1-34.2,18.3c0,2.9,0.2,6,0.2,9.2
		c0,36.6-14.1,58.7-38.2,58.7c-19.9,0-41.8-13.6-41.8-52c0-26.1,10.1-62.1,43.6-62.1C441.8,187.6,450.5,203.1,453.4,222.9z
		 M443.6,239.9c0-1.8,0-3.6-0.2-5.4c-8.5-0.4-12.1-3.6-12.1-11.2c0-6.9,3.1-9.4,8.9-9.6c-3.6-10.3-9.4-13.8-16.1-13.8
		c-18.5,0-25.2,27-25.2,48.9c0,29,11.6,36,21.7,36C436.2,284.8,443.6,268.3,443.6,239.9z"/>
	<path d="M500.5,188.8v18.8c6.9-10.5,13.6-19.9,26.4-19.9c10.1,0,14.7,6,14.7,13.4c0,8.9-6.7,11.6-10.3,11.6c-5.1,0-6-5.6-12.5-5.6
		c-6.7,0-13.2,5.8-18.3,11.2v82.2h-22.3V188.8H500.5z"/>
	<path d="M571.3,141.6c8,0,15,6.9,15,15c0,8.3-6.9,14.7-15,14.7c-8.3,0-14.7-6.5-14.7-14.7C556.6,148.5,563.1,141.6,571.3,141.6z
		 M583,188.8v75.9c0,5.8,0.4,20.1,10.1,20.1c7.1,0,12.7-8.3,16.1-24.3h8.3c-6.7,37.3-21.2,41.3-31,41.3c-20.6,0-25.7-17.9-25.7-32.4
		v-80.6H583z"/>
	<path d="M698.4,188.8v75.9c0,5.8,0.4,20.1,10.1,20.1c7.1,0,12.7-8.3,16.1-24.3h8.3c-6.7,37.3-21.2,41.3-31,41.3
		c-13.6,0-19.4-10.1-21.7-21.2c-4.5,11.6-15,21.2-29,21.2c-18.1,0-38.2-13.6-38.2-51.2c0-27.5,12.1-63,42.4-63
		c7.1,0,16.5,2.7,20.8,11.8v-10.7H698.4z M676.1,260.5v-50.9c-2-4.7-6.5-9.6-13.2-9.6c-19.2,0-26.6,28.4-26.6,49.1
		c0,25.5,7.4,35.7,20.3,35.7C665.8,284.8,676.1,274.1,676.1,260.5z"/>
	<path d="M754.1,144.1v120.6c0,6.9,0,20.1,9.8,20.1c2.2,0,6.5-0.7,8.3-1.3c0.2,1.3,0.4,2.5,0.4,4c0,10.3-10.1,14.3-18.8,14.3
		c-17.9,0-22.1-16.8-22.1-31.5V147.2L754.1,144.1z"/>
</g>
</svg>
