<?xml version="1.0" encoding="utf-8"?>
<!-- Generator: Adobe Illustrator 22.0.0, SVG Export Plug-In . SVG Version: 6.00 Build 0)  -->
<svg version="1.1" id="Layer_1" xmlns="http://www.w3.org/2000/svg" xmlns:xlink="http://www.w3.org/1999/xlink" x="0px" y="0px"
	 viewBox="0 0 783.9 304.6" style="enable-background:new 0 0 783.9 304.6;" xml:space="preserve">
<style type="text/css">
	.st0{fill:#FFFFFF;}
</style>
<g>
	<g>
		<path class="st0" d="M56.6,108.3c0,2.3,0.3,4.1,1,5.5c0.6,1.4,1.5,2.4,2.6,3.2c1.1,0.7,2.3,1.2,3.8,1.5c1.5,0.2,3,0.4,4.6,0.4h3.3
			v6.1H26.6v-6.1h3.3c1.6,0,3.1-0.1,4.6-0.3c1.4-0.2,2.7-0.7,3.8-1.3c1.1-0.7,2-1.6,2.6-3c0.6-1.3,1-3,1-5.2v-81h-14
			c-2.1,0-3.9,0.3-5.4,1c-1.4,0.6-2.6,1.5-3.6,2.6c-0.9,1.1-1.6,2.4-2.1,3.8c-0.5,1.4-0.8,3-1,4.6L15,46.4H7.6l0.7-25.5h82L91,46.4
			h-7.5l-0.7-6.3c-0.2-1.6-0.5-3.1-1-4.6c-0.5-1.4-1.2-2.7-2.1-3.8c-0.9-1.1-2.1-2-3.6-2.6s-3.3-1-5.5-1h-14V108.3z"/>
		<path class="st0" d="M135.9,118.8v6.1H96.7v-6.1h1.1c1.7,0,3.2-0.1,4.7-0.4c1.4-0.2,2.7-0.7,3.8-1.5c1.1-0.7,1.9-1.8,2.6-3.2
			c0.6-1.4,1-3.2,1-5.5v-78c0-2.1-0.3-3.9-1-5.2c-0.6-1.3-1.5-2.3-2.6-3s-2.4-1.2-3.8-1.4c-1.4-0.2-3-0.3-4.6-0.3h-1.1v-6.1h26.8v32
			c0,1.3,0,2.7-0.1,4.2c0,1.4-0.1,2.8-0.2,4c-0.1,1.4-0.2,2.8-0.3,4.2h0.7c4.4-8.8,11.5-13.2,21.4-13.2c4.1,0,7.8,0.6,11,1.7
			c3.2,1.1,5.9,2.8,8.1,5.1c2.2,2.3,3.8,5.3,5,8.9c1.1,3.6,1.7,7.9,1.7,12.9v34.4c0,2.3,0.3,4.1,0.9,5.5s1.4,2.4,2.3,3.2
			c1,0.7,2.2,1.2,3.6,1.5c1.4,0.2,2.9,0.4,4.5,0.4h0.4v6.1h-25.3V74.6c0-3.2-0.3-6-0.9-8.5c-0.6-2.5-1.5-4.6-2.7-6.3
			c-1.3-1.7-2.9-3-4.9-3.9s-4.5-1.3-7.5-1.3s-5.7,0.6-7.9,1.7c-2.2,1.1-4,2.7-5.5,4.8c-1.4,2.1-2.5,4.6-3.2,7.5s-1.1,6.2-1.1,9.7
			V109c0,2.1,0.3,3.9,1,5.2c0.6,1.3,1.5,2.3,2.6,3c1.1,0.7,2.4,1.1,3.8,1.3c1.4,0.2,3,0.3,4.6,0.3H135.9z"/>
		<path class="st0" d="M228.4,126.3c-5.3,0-10-0.9-14.2-2.7c-4.2-1.8-7.7-4.4-10.6-7.8c-2.9-3.4-5.1-7.6-6.7-12.6
			c-1.5-5-2.3-10.6-2.3-16.9c0-13.6,2.8-23.9,8.4-30.7c5.6-6.9,13.6-10.3,23.9-10.3c4.7,0,8.9,0.7,12.7,2.2c3.7,1.5,6.9,3.7,9.5,6.6
			c2.6,2.9,4.6,6.5,6,10.9c1.4,4.3,2.1,9.4,2.1,15.1v6.7h-48.5c0.1,5.3,0.6,9.9,1.6,13.7c1,3.8,2.4,7,4.2,9.4
			c1.8,2.5,4.1,4.3,6.7,5.4c2.7,1.2,5.7,1.7,9.2,1.7c2.5,0,4.9-0.3,7-0.9c2.2-0.6,4.1-1.3,5.9-2.3c1.8-0.9,3.3-2,4.7-3.2
			s2.5-2.5,3.3-3.8c0.7,0.3,1.3,0.9,1.9,1.8c0.6,0.9,0.9,2,0.9,3.2c0,1.5-0.5,3-1.6,4.7c-1,1.7-2.6,3.2-4.8,4.7
			c-2.1,1.4-4.8,2.6-8,3.6S232.7,126.3,228.4,126.3z M226.6,53.2c-5.4,0-9.6,2.2-12.5,6.6s-4.6,10.8-5.2,19.2h33.5
			c0-3.8-0.3-7.4-0.9-10.5c-0.6-3.2-1.5-5.9-2.7-8.2s-2.9-4-4.9-5.3C232,53.8,229.5,53.2,226.6,53.2z"/>
		<path class="st0" d="M336.5,117.6h28.1c2.3,0,4.3-0.3,5.9-1s3-1.5,4.1-2.6s1.9-2.4,2.6-3.8c0.6-1.4,1-3,1.3-4.6l1-6.3h7.6l-1,25.5
			H308v-6.1h1.9c1.6,0,3.1-0.1,4.6-0.3c1.4-0.2,2.7-0.7,3.8-1.3c1.1-0.7,2-1.6,2.6-3c0.6-1.3,1-3,1-5.2V37.4c0-2.3-0.3-4.1-0.9-5.5
			c-0.6-1.4-1.5-2.4-2.6-3.2c-1.1-0.7-2.4-1.2-3.8-1.5c-1.4-0.2-3-0.4-4.7-0.4H308v-6.1h73.4l0.7,25.5h-7.5l-0.7-6.3
			c-0.2-1.6-0.6-3.1-1.1-4.6c-0.5-1.4-1.3-2.7-2.3-3.8c-1-1.1-2.3-2-3.8-2.6s-3.4-1-5.6-1h-24.5v38.8h35.2V74h-35.2v43.6H336.5z"/>
		<path class="st0" d="M431.8,118.6c1.8,0,3.4-0.1,4.8-0.3c1.5-0.2,3-0.4,4.5-0.7v6.4c-0.6,0.3-1.4,0.6-2.4,0.9s-2.1,0.5-3.2,0.7
			c-1.2,0.2-2.4,0.4-3.7,0.5c-1.3,0.1-2.5,0.2-3.6,0.2c-3.7,0-6.9-0.4-9.5-1.2c-2.7-0.8-4.8-2.1-6.5-3.8c-1.7-1.8-3-4.1-3.8-7
			s-1.2-6.4-1.2-10.6V55.1H396v-5.8c1.8,0,3.7-0.4,5.8-1.1c2.1-0.7,4-1.9,5.6-3.6c1.7-1.8,3-3.9,4-6.4s1.9-5.6,2.7-9.4h6.7v17.9
			h19.1V55h-19.1v49.1c0,5,1,8.6,3,11C425.8,117.5,428.4,118.6,431.8,118.6z"/>
		<path class="st0" d="M486.3,118.8v6.1h-39.2v-6.1h1.1c1.7,0,3.2-0.1,4.7-0.4c1.4-0.2,2.7-0.7,3.8-1.5c1.1-0.7,1.9-1.8,2.6-3.2
			s1-3.2,1-5.5v-78c0-2.1-0.3-3.9-1-5.2c-0.6-1.3-1.5-2.3-2.6-3s-2.4-1.2-3.8-1.4c-1.4-0.2-3-0.3-4.6-0.3h-1.1v-6.1H474v32
			c0,1.3,0,2.7-0.1,4.2c0,1.4-0.1,2.8-0.2,4c-0.1,1.4-0.2,2.8-0.3,4.2h0.7c4.4-8.8,11.5-13.2,21.4-13.2c4.1,0,7.8,0.6,11,1.7
			c3.2,1.1,5.9,2.8,8.1,5.1s3.8,5.3,5,8.9c1.1,3.6,1.7,7.9,1.7,12.9v34.4c0,2.3,0.3,4.1,0.9,5.5s1.4,2.4,2.3,3.2
			c1,0.7,2.2,1.2,3.6,1.5c1.4,0.2,2.9,0.4,4.5,0.4h0.4v6.1h-25.3V74.6c0-3.2-0.3-6-0.9-8.5s-1.5-4.6-2.7-6.3c-1.3-1.7-2.9-3-4.9-3.9
			s-4.5-1.3-7.5-1.3s-5.7,0.6-7.9,1.7c-2.2,1.1-4,2.7-5.5,4.8c-1.4,2.1-2.5,4.6-3.2,7.5s-1.1,6.2-1.1,9.7V109c0,2.1,0.3,3.9,1,5.2
			c0.6,1.3,1.5,2.3,2.6,3s2.4,1.1,3.8,1.3c1.4,0.2,3,0.3,4.6,0.3H486.3z"/>
		<path class="st0" d="M542.3,118.8c1.6,0,3.1-0.1,4.6-0.3c1.4-0.2,2.7-0.7,3.8-1.3c1.1-0.7,2-1.6,2.6-3c0.6-1.3,1-3,1-5.2V62.8
			c0-2.1-0.3-3.9-1-5.2c-0.6-1.3-1.5-2.3-2.6-3s-2.4-1.2-3.8-1.4c-1.4-0.2-3-0.4-4.6-0.4h-0.4v-6.1h26v61.6c0,2.3,0.3,4.1,1,5.5
			c0.6,1.4,1.5,2.4,2.6,3.2c1.1,0.7,2.3,1.2,3.8,1.5c1.5,0.2,3,0.4,4.6,0.4h1.9v6.1h-41.4v-6.1L542.3,118.8L542.3,118.8z
			 M552.1,23.1c0-1.7,0.2-3.1,0.6-4.3c0.4-1.1,1-2.1,1.8-2.8s1.6-1.2,2.6-1.5s2.1-0.4,3.3-0.4c1.1,0,2.2,0.1,3.2,0.4
			s1.9,0.8,2.6,1.5c0.7,0.7,1.3,1.6,1.8,2.8c0.5,1.1,0.7,2.6,0.7,4.3c0,1.7-0.2,3.1-0.7,4.3c-0.5,1.1-1,2.1-1.8,2.8
			c-0.7,0.7-1.6,1.2-2.6,1.5s-2.1,0.5-3.2,0.5c-1.2,0-2.3-0.2-3.3-0.5s-1.9-0.8-2.6-1.5c-0.8-0.7-1.4-1.6-1.8-2.8
			C552.4,26.3,552.1,24.8,552.1,23.1z"/>
		<path class="st0" d="M624.9,126.3c-4.8,0-9.3-0.7-13.4-2.2c-4.1-1.5-7.6-3.9-10.5-7.1s-5.2-7.4-6.9-12.4s-2.5-11.2-2.5-18.3
			c0-7.8,0.8-14.3,2.5-19.5c1.6-5.2,3.9-9.5,6.8-12.6c2.9-3.2,6.4-5.4,10.3-6.8c4-1.3,8.2-2,12.8-2c3,0,6.1,0.3,9.1,0.9
			c3,0.6,5.7,1.5,8.1,2.7c2.4,1.2,4.4,2.8,5.9,4.7s2.3,4.1,2.3,6.6c0,3.4-1.1,5.7-3.3,7.1s-5.4,2.1-9.7,2.1c0-2.3-0.2-4.4-0.6-6.5
			c-0.4-2-1-3.8-2-5.4c-0.9-1.5-2.2-2.8-3.8-3.6c-1.6-0.9-3.6-1.3-6.1-1.3c-2.8,0-5.3,0.5-7.6,1.6c-2.3,1-4.2,2.8-5.8,5.4
			c-1.6,2.6-2.8,6-3.7,10.3c-0.9,4.3-1.3,9.7-1.3,16.2c0,10.3,1.7,18.1,5.2,23.1c3.4,5.1,9.1,7.6,16.9,7.6c4.5,0,8.4-0.9,11.8-2.8
			c3.4-1.9,5.9-4.3,7.5-7.3c0.7,0.6,1.3,1.3,1.8,2.3c0.5,0.9,0.7,2.1,0.7,3.4c0,1.7-0.5,3.3-1.6,5c-1,1.7-2.6,3.2-4.7,4.5
			s-4.6,2.4-7.7,3.2C632.6,125.9,629,126.3,624.9,126.3z"/>
		<path class="st0" d="M694.4,52.6c-2.8,0-5.1,0.4-6.8,1.2s-3.1,1.9-4.1,3.3s-1.6,3.1-2,5.1c-0.3,1.9-0.5,4.1-0.5,6.3
			c-4,0-7.1-0.7-9.2-2.1c-2.1-1.4-3.2-3.7-3.2-7.1c0-2.5,0.7-4.6,2.1-6.4c1.4-1.8,3.3-3.2,5.7-4.3s5.2-1.9,8.4-2.5
			c3.2-0.5,6.6-0.8,10.2-0.8c4.5,0,8.3,0.4,11.7,1.3c3.3,0.9,6.1,2.3,8.3,4.3s3.9,4.6,5,7.8s1.7,7.1,1.7,11.8v37.8
			c0,2,0.2,3.7,0.5,5.1c0.3,1.3,0.9,2.4,1.6,3.2c0.7,0.8,1.6,1.4,2.8,1.7c1.2,0.3,2.5,0.5,4.2,0.5h0.4v6.1h-19.7l-2.3-12.5H708
			c-1.5,2-3,3.9-4.4,5.6s-3,3.2-4.7,4.4c-1.7,1.2-3.6,2.2-5.8,2.9c-2.2,0.7-4.8,1-7.8,1c-3.2,0-6.2-0.5-9-1.4s-5.2-2.3-7.2-4.3
			c-2-1.9-3.6-4.3-4.7-7.3c-1.1-2.9-1.7-6.4-1.7-10.4c0-7.7,2.8-13.5,8.3-17.2c5.5-3.7,13.8-5.8,25-6.1l12.1-0.4v-8.8
			c0-2.6-0.1-5-0.4-7.2c-0.3-2.2-0.9-4.1-1.9-5.7c-0.9-1.6-2.3-2.8-4.1-3.7C699.8,53,697.4,52.6,694.4,52.6z M676.7,103.7
			c0,4.6,1,8,2.9,10.2c1.9,2.3,4.9,3.4,8.9,3.4c2.9,0,5.6-0.5,8-1.4s4.4-2.3,6.1-4.1c1.7-1.8,3-3.9,3.9-6.4s1.4-5.3,1.4-8.4V85.2
			l-9.3,0.4c-4.1,0.2-7.6,0.7-10.4,1.5c-2.8,0.8-5,2-6.7,3.5s-2.9,3.3-3.7,5.5C677.1,98.4,676.7,100.9,676.7,103.7z"/>
		<path class="st0" d="M741.1,118.8c1.7,0,3.2-0.1,4.7-0.4c1.4-0.2,2.7-0.7,3.8-1.5c1.1-0.7,1.9-1.8,2.6-3.2s1-3.2,1-5.5v-78
			c0-2.1-0.3-3.9-1-5.2c-0.6-1.3-1.5-2.3-2.6-3s-2.4-1.2-3.8-1.4c-1.4-0.2-3-0.3-4.6-0.3h-1.9v-6.1h27.5v94.1c0,2.3,0.3,4.1,0.9,5.5
			c0.6,1.4,1.5,2.4,2.6,3.2c1.1,0.7,2.4,1.2,3.8,1.5c1.4,0.2,3,0.4,4.7,0.4h1.9v6.1h-41.3v-6.1L741.1,118.8L741.1,118.8z"/>
	</g>
	<g>
		<path class="st0" d="M67.3,194.3c-3.2,0-5.3-1.1-7.6-3.2c3.2-2,5.1-6.3,5.1-10.6c0-7.1-5.1-14.7-17-14.7
			c-12.4,0-19.1,8.3-19.1,18.7c0,29.9,56.1,17.9,56.1,59.1c0,24.8-20.5,34.1-41.2,34.1c-18.2,0-37.5-7.2-37.5-24.8
			c0-10.2,6.5-22.5,19.3-22.5c5.1,0,8.7,2,11.5,8.8c-11.3,0.5-14.2,8.3-14.2,13.6c0,11.1,12.7,16.5,21.9,16.5
			c10.8,0,18.8-7.4,18.8-21c0-34.4-51.9-21-51.9-56.8c0-20.7,17.2-31.2,35.6-31.2c8.1,0,30.8,2,30.8,21.1
			C77.9,189.6,73.6,194.3,67.3,194.3z"/>
		<path class="st0" d="M166.4,198.7v52.4c0,4,0.4,13.9,8,13.9c5.7,0,10.1-5.7,12.7-16.8h6.5c-5.3,25.8-16.8,28.5-24.6,28.5
			c-10.8,0-15.4-6.9-17.2-14.7c-3.5,8-11.9,14.7-23,14.7c-14.3,0-30.3-9.4-30.3-35.3c0-19,9.6-43.5,33.6-43.5
			c5.7,0,13.1,1.9,16.5,8.2v-7.4L166.4,198.7L166.4,198.7z M148.7,248.2V213c-1.6-3.2-5.1-6.6-10.4-6.6c-15.2,0-21.1,19.6-21.1,33.9
			c0,17.6,5.8,24.7,16.1,24.7C140.5,265,148.7,257.6,148.7,248.2z"/>
		<path class="st0" d="M210.3,198.7v13c5.5-7.2,10.8-13.7,20.9-13.7c8,0,11.7,4.2,11.7,9.3c0,6.2-5.3,8-8.1,8
			c-4.1,0-4.8-3.9-9.9-3.9c-5.3,0-10.4,4-14.5,7.7v56.8h-17.7v-77.1L210.3,198.7L210.3,198.7z"/>
		<path class="st0" d="M275.6,175.2v23.4h13.6v5.4h-13.6v47c0,4.8,0.4,13.9,8.3,13.9c6.4,0,12.6-5.6,15.9-16.8h6.5
			c-7.8,25.8-19.5,28.5-27.6,28.5c-17,0-20.9-12.2-20.9-22.4v-50.3h-6v-5.4h6v-21.3L275.6,175.2z"/>
		<path class="st0" d="M365.3,222.3h1.1c9.7,0,18.4-4,24.2-9.3l2.7,4.2c-4.6,6.6-16.3,11.1-27.1,12.6c0,2,0.2,4.2,0.2,6.3
			c0,25.3-11.2,40.6-30.3,40.6c-15.8,0-33.1-9.4-33.1-35.9c0-18,8-42.9,34.5-42.9C356.1,197.9,363,208.5,365.3,222.3z M357.5,234
			c0-1.2,0-2.5-0.2-3.7c-6.7-0.3-9.6-2.5-9.6-7.7c0-4.8,2.5-6.5,7.1-6.6c-2.8-7.1-7.4-9.6-12.7-9.6c-14.7,0-20,18.7-20,33.8
			c0,20.1,9.2,24.8,17.2,24.8C351.7,265,357.5,253.6,357.5,234z"/>
		<path class="st0" d="M402.6,198.7v13c5.5-7.2,10.8-13.7,20.9-13.7c8,0,11.7,4.2,11.7,9.3c0,6.2-5.3,8-8.1,8
			c-4.1,0-4.8-3.9-9.9-3.9c-5.3,0-10.4,4-14.5,7.7v56.8H385v-77.1L402.6,198.7L402.6,198.7z"/>
		<path class="st0" d="M458.7,166.1c6.4,0,11.9,4.8,11.9,10.3c0,5.7-5.5,10.2-11.9,10.2c-6.5,0-11.7-4.5-11.7-10.2
			C447,170.9,452.2,166.1,458.7,166.1z M467.9,198.7v52.4c0,4,0.4,13.9,8,13.9c5.7,0,10.1-5.7,12.7-16.8h6.5
			c-5.3,25.8-16.8,28.5-24.6,28.5c-16.3,0-20.4-12.3-20.4-22.4v-55.7L467.9,198.7L467.9,198.7z"/>
		<path class="st0" d="M559.4,198.7v52.4c0,4,0.4,13.9,8,13.9c5.7,0,10.1-5.7,12.7-16.8h6.5c-5.3,25.8-16.8,28.5-24.6,28.5
			c-10.8,0-15.4-6.9-17.2-14.7c-3.5,8-11.9,14.7-23,14.7c-14.3,0-30.3-9.4-30.3-35.3c0-19,9.6-43.5,33.6-43.5
			c5.7,0,13.1,1.9,16.5,8.2v-7.4L559.4,198.7L559.4,198.7z M541.7,248.2V213c-1.6-3.2-5.1-6.6-10.4-6.6c-15.2,0-21.1,19.6-21.1,33.9
			c0,17.6,5.8,24.7,16.1,24.7C533.6,265,541.7,257.6,541.7,248.2z"/>
		<path class="st0" d="M603.5,167.8v83.3c0,4,0.4,13.9,8,13.9c5.7,0,10.1-5.7,12.7-16.8h6.5c-5.3,25.8-16.8,28.5-24.6,28.5
			c-16.3,0-20.4-12.3-20.4-22.4V170L603.5,167.8z"/>
		<path class="st0" d="M638.2,166.1c6.4,0,11.9,4.8,11.9,10.3c0,5.7-5.5,10.2-11.9,10.2c-6.5,0-11.7-4.5-11.7-10.2
			C626.5,170.9,631.6,166.1,638.2,166.1z M647.4,198.7v52.4c0,4,0.4,13.9,8,13.9c5.7,0,10.1-5.7,12.7-16.8h6.5
			c-5.3,25.8-16.8,28.5-24.6,28.5c-16.3,0-20.4-12.3-20.4-22.4v-55.7L647.4,198.7L647.4,198.7z"/>
		<path class="st0" d="M741.7,248.2c-6.7,8.2-14.3,13.3-21.1,17.4c-5.3,8-17,11.1-24.6,11.1c-20.7,0-26.4-12.8-26.4-22.8
			c0-5.4,2.8-9.6,6.4-11.3c6.2-15.3,13.1-30.5,14.9-45.7l17.9-3.1c11.2,39.2,14.5,45.8,14.7,61.5c3.9-2.3,7.6-4.9,10.8-7.2
			L741.7,248.2L741.7,248.2z M694.8,210.4c-1.4,11.4-6.7,21.6-10.3,32.7c2.1,1.2,3.9,3.4,3.9,6.8c0,3.9-2.8,6-5.7,6
			c-1.8,0-3.4-0.6-4.8-2.2c1.8,7.2,6.5,11.4,14.3,11.4c7.4,0,12.4-3.2,12.4-10.8C704.7,241.7,701.4,237.2,694.8,210.4z"/>
		<path class="st0" d="M757.6,175.2v23.4h13.6v5.4h-13.6v47c0,4.8,0,13.9,7.8,13.9c1.8,0,5.1-0.5,6.5-0.9c0.2,0.9,0.4,1.7,0.4,2.8
			c0,7.1-8,9.9-14.9,9.9c-14.2,0-17.5-11.6-17.5-21.8V204h-6v-5.4h6v-21.3L757.6,175.2z"/>
	</g>
</g>
</svg>
