<?xml version="1.0" encoding="utf-8"?>
<!-- Generator: Adobe Illustrator 22.0.0, SVG Export Plug-In . SVG Version: 6.00 Build 0)  -->
<svg version="1.1" id="Capa_1" xmlns="http://www.w3.org/2000/svg" xmlns:xlink="http://www.w3.org/1999/xlink" x="0px" y="0px"
	 viewBox="0 0 459 468.9" style="enable-background:new 0 0 459 468.9;" xml:space="preserve">
<style type="text/css">
	.st0{fill:#FFFFFF;}
</style>
<g>
	<g>
		<g>
			<path d="M437.3,106.9l-12-3.8c-3-0.8-6-1.5-9.8-1.5c-13.6,0-25.6,9-30.1,21.8l-6.8,20.3v-15.1V128c0-2.3-1.5-4.5-3-6L252.1,2.3
				c-1.5-1.5-3.8-2.3-5.3-2.3H5.1C0.6,0-2.4,3-2.4,7.5v23.3h-27.9c-4.5,0-7.5,3-7.5,7.5v451c0,4.5,3,7.5,7.5,7.5h365.9
				c4.5,0,7.5-3,7.5-7.5v-23.3h27.9c4.5,0,7.5-3,7.5-7.5V356.9l21.1-28.6l0.8-2.3l56.5-180C462.9,129.5,453.9,112.2,437.3,106.9z
				 M254.4,25.6l98.6,94.9h-98.6V25.6z M328.1,481.9H-22.7v-436h20.3v412.6c0,4.5,3,7.5,7.5,7.5h323L328.1,481.9L328.1,481.9z
				 M364.3,451h-0.8H12.7v-436h226.6V128c0,4.5,3,7.5,7.5,7.5h117.5V192l-35.4,111.4v2.3l1.5,95.6c0,3,2.3,6,5.3,6.8
				c3,0.8,6.8,0,8.3-3l20.3-27.1L364.3,451L364.3,451z M344.7,378l-1.5-62.5l37.6,12L344.7,378z M443.3,141.6L389.1,314l-43.7-14.3
				L399.7,128c3-8.3,12-13.6,20.3-10.5l12,3.8C441.1,123.5,446.4,133.3,443.3,141.6z"/>
			<path d="M63.9,135.5h108.4c4.5,0,7.5-3,7.5-7.5V51.2c0-4.5-3-7.5-7.5-7.5H63.9c-4.5,0-7.5,3-7.5,7.5V128
				C56.3,131.8,60.1,135.5,63.9,135.5z M71.4,58.7h93.4v61.7H71.4V58.7z"/>
			<path d="M48.8,206.3h228.9c4.5,0,7.5-3,7.5-7.5c0-4.5-3-7.5-7.5-7.5H48.8c-4.5,0-7.5,3-7.5,7.5C41.3,203.3,44.3,206.3,48.8,206.3
				z"/>
			<path d="M48.8,261.3h228.9c4.5,0,7.5-3,7.5-7.5s-3-7.5-7.5-7.5H48.8c-4.5,0-7.5,3-7.5,7.5S44.3,261.3,48.8,261.3z"/>
			<path d="M48.8,316.2h228.9c4.5,0,7.5-3,7.5-7.5s-3-7.5-7.5-7.5H48.8c-4.5,0-7.5,3-7.5,7.5S44.3,316.2,48.8,316.2z"/>
			<path d="M284.5,363.7c0-4.5-3-7.5-7.5-7.5H48.8c-4.5,0-7.5,3-7.5,7.5s3,7.5,7.5,7.5h228.9C281.5,371.2,284.5,367.4,284.5,363.7z"
				/>
			<path d="M309.3,411.1H195.6c-4.5,0-7.5,3-7.5,7.5s3,7.5,7.5,7.5h112.9c4.5,0,7.5-3,7.5-7.5S313.1,411.1,309.3,411.1z"/>
		</g>
	</g>
</g>
<rect x="-161" y="-64" class="st0" width="158.6" height="584"/>
<rect x="-37" y="466.1" class="st0" width="481.2" height="76.9"/>
</svg>
