<?xml version="1.0" encoding="utf-8"?>
<!-- Generator: Adobe Illustrator 22.0.0, SVG Export Plug-In . SVG Version: 6.00 Build 0)  -->
<svg version="1.1" id="Capa_1" xmlns="http://www.w3.org/2000/svg" xmlns:xlink="http://www.w3.org/1999/xlink" x="0px" y="0px"
	 viewBox="0 0 52 52" style="enable-background:new 0 0 52 52;" xml:space="preserve">
<g>
	<path d="M26,0C11.7,0,0,11.7,0,26s11.7,26,26,26s26-11.7,26-26S40.3,0,26,0z M26,50C12.8,50,2,39.2,2,26S12.8,2,26,2s24,10.8,24,24
		S39.2,50,26,50z"/>
	<path d="M27.4,26l9.4-9.4c0.4-0.4,0.4-1,0-1.4s-1-0.4-1.4,0L26,24.6l-9.4-9.4c-0.4-0.4-1-0.4-1.4,0s-0.4,1,0,1.4l9.4,9.4l-9.4,9.4
		c-0.4,0.4-0.4,1,0,1.4c0.2,0.2,0.5,0.3,0.7,0.3s0.5-0.1,0.7-0.3l9.4-9.4l9.4,9.4c0.2,0.2,0.5,0.3,0.7,0.3s0.5-0.1,0.7-0.3
		c0.4-0.4,0.4-1,0-1.4L27.4,26z"/>
</g>
</svg>
